<svg xmlns="http://www.w3.org/2000/svg" width="450" height="100" xmlns:xlink="http://www.w3.org/1999/xlink"><defs><symbol id="a" viewBox="0 0 460.233 460.233"><path fill="#D8D9DD" d="M309.125 441.463H151.34l19.723-89.449h118.339z"/><path fill="#D8D9DD" d="M131.636 431.298h197.193v18.296H131.636z"/><path fill="#59595A" d="M439.677 75.537c.012 0 .226.139.226.151v255.997H20.562V75.688a.96.96 0 0 1 .161-.151h418.954zm20.556 128.073V75.652c0-10.847-9.672-20.444-20.52-20.444H20.687C9.84 55.208.233 64.805.233 75.652v255.92c0 10.848 9.607 20.444 20.454 20.444h419.026c10.848 0 20.52-9.597 20.52-20.444V203.61z"/><path fill="#90C5FF" d="M439.677 75.537c.012 0 .226.139.226.151v255.997H20.562V75.688a.96.96 0 0 1 .161-.151h418.954z"/><path fill="#5B5B5F" d="M131.636 431.298h197.193v18.296H131.636z" opacity=".4"/><path fill="#FFF" d="M180.309 362.12l-27.346 12.039L0 27.043 27.335 14.99zm52.021-4.349l-27.356 12.038L52.01 22.692l27.315-12.053z" opacity=".2"/></symbol><symbol id="b" viewBox="0 0 60 60"><path fill="#7FABDA" stroke="#7383BF" stroke-width="2" stroke-miterlimit="10" d="M50.003 20c-.115-8.699-7.193-16-15.919-16-5.559 0-10.779 3.005-13.661 7.336A8 8 0 0 0 8 18c0 .153.014.302.023.454-.01.182-.023.366-.023.546-3.988 1.912-7 6.457-7 11.155C1 36.67 6.33 42 12.845 42h24.507c.138 0 .272-.016.408-.021.137.005.271.021.409.021h9.803C54.037 42 59 37.037 59 30.972c0-5.371-3.894-10.011-8.997-10.972zm0 0s-2.535-.375-5.003 0M8 18a8 8 0 0 1 16 0" stroke-linecap="round"/><circle cx="31" cy="41" r="16" fill="#556080"/><path fill="#FFF" d="M41 41a1 1 0 0 0-1 1c0 4.963-4.038 9-9 9s-9-4.037-9-9 4.038-9 9-9c3 0 5.677 1.506 7.311 4H32a1 1 0 1 0 0 2h8l.005-.001c.07 0 .14-.027.21-.042.06-.014.125-.015.181-.039l.005-.001c.034-.015.056-.043.087-.061.081-.046.162-.093.227-.159.044-.046.07-.103.104-.155.036-.055.08-.104.105-.166.034-.084.043-.175.054-.265.004-.039.022-.072.022-.111v-8a1 1 0 1 0-2 0v4.6a10.605 10.605 0 0 0-8-3.6c-6.065 0-11 4.935-11 11s4.935 11 11 11 11-4.935 11-11a1 1 0 0 0-1-1z"/></symbol><symbol id="c" viewBox="0 0 501.71 501.71"><path fill="#F8B64C" d="M470.283 73.222v126.433H31.426V20.977C31.426 9.483 40.83.079 52.324.079h126.433c11.494 0 20.898 9.404 20.898 20.898v31.347h249.731c11.493 0 20.897 9.404 20.897 20.898z"/><path fill="#FFD15C" d="M480.732 199.655H20.977c-12.539 0-21.943 10.449-20.898 22.988l30.302 259.135c1.045 11.494 9.404 19.853 20.898 19.853H450.43c11.494 0 19.853-8.359 20.898-19.853l30.302-259.135c1.045-11.494-8.359-22.988-20.898-22.988z"/><path fill="#F2F2F2" d="M57.549 83.671h386.612v115.984H57.549z"/><path fill="#CDD6E0" d="M83.671 107.704h334.367v26.122H83.671zm0 48.065h334.367v26.122H83.671z"/><path fill="#FFF" d="M204.879 331.312v-36.571c0-21.943 20.898-41.796 45.976-41.796s45.976 19.853 45.976 41.796v36.571h31.347v-36.571c0-39.706-35.527-73.143-77.322-73.143s-77.322 33.437-77.322 73.143v36.571h31.345z"/><path fill="#FF7058" d="M332.357 329.222H169.353c-11.494 0-20.898 9.404-20.898 20.898v108.67c0 11.494 9.404 20.898 20.898 20.898h163.004c11.494 0 20.898-9.404 20.898-20.898V350.12c0-11.494-9.404-20.898-20.898-20.898z"/><path fill="#41596B" d="M273.843 392.961c0-14.629-13.584-26.122-28.212-22.988-9.404 2.09-15.673 9.404-17.763 17.763-2.09 10.449 3.135 19.853 10.449 25.078v15.673c0 6.269 5.224 12.539 12.539 12.539 6.269 0 12.539-5.224 12.539-12.539v-15.673c6.268-4.18 10.448-11.494 10.448-19.853z"/></symbol><symbol id="d" viewBox="0 0 444.163 444.163"><g transform="translate(8 26)"><path fill="#CAF1FF" d="M280.163 314.882l-184 49.2c-17.2 4.4-34.8-5.6-39.2-22.8l-56-208.8c-4.4-17.2 5.6-34.8 22.8-39.2l46.8-12.8 209.6 234.4z"/><path fill="#9CE0FF" d="M396.163 26.882c17.6 0 32 14.4 32 32v224c0 17.6-14.4 32-32 32h-288c-17.6 0-32-14.4-32-32v-224c0-17.6 14.4-32 32-32h288z"/><path fill="#80D440" d="M424.163 191.682l-47.6-47.6c-3.2-3.2-8-3.2-11.2 0l-96.8 95.2-60-56.4-119.2 126.8h336l-1.2-118z"/><path fill="#62C418" d="M267.363 235.682l-52.4-50.4c-3.2-3.2-8-3.2-11.2 0l-123.6 121.6h120l67.2-71.2z"/><path fill="#5F961D" d="M222.163 290.882c-2 0-4-.8-5.6-2.4-3.2-3.2-3.2-8 0-11.2l8-8c3.2-3.2 8-3.2 11.2 0 3.2 3.2 3.2 8 0 11.2l-8 8c-1.6 1.6-3.6 2.4-5.6 2.4zm-127.6 12.8l-11.2-11.6 115.6-113.2c3.2-3.2 7.2-4.8 11.2-4.8s8 1.6 11.2 4.8l46.4 46.4-11.2 11.2-46.4-46.4-115.6 113.6z"/><path fill="#5F971D" d="M246.963 265.682c-2 0-4-.8-5.6-2.4-3.2-3.2-3.2-8 0-11.2l118.4-117.6c6-6 16.4-6 22.4 0l47.6 47.6c3.2 3.2 3.2 8 0 11.2s-8 3.2-11.2 0l-47.6-47.6-118.4 117.6c-1.6 1.6-3.6 2.4-5.6 2.4z"/><path fill="#62A2DD" d="M396.163 322.882h-288c-22 0-40-18-40-40v-224c0-22 18-40 40-40h288c22 0 40 18 40 40v224c0 22-18 40-40 40zm-288-288c-13.2 0-24 10.8-24 24v224c0 13.2 10.8 24 24 24h288c13.2 0 24-10.8 24-24v-224c0-13.2-10.8-24-24-24h-288z"/><circle cx="156.163" cy="106.882" r="24" fill="#FFE53C"/><path fill="#F3D933" d="M156.163 130.882c13.2 0 24-10.8 24-24s-10.8-24-24-24v48z"/><path fill="#C39215" d="M156.163 138.882c-17.6 0-32-14.4-32-32s14.4-32 32-32 32 14.4 32 32-14.4 32-32 32zm0-48c-8.8 0-16 7.2-16 16s7.2 16 16 16 16-7.2 16-16-7.2-16-16-16z"/><path fill="#62A2DD" d="M87.763 373.282c-7.2 0-14-2-20-5.6-9.2-5.2-16-14-18.4-24.4l-56-208.8c-2.8-10.4-1.2-21.2 4-30.4s14-16 24.4-18.4l46.8-12.8 4.4 15.6-47.2 12.4c-6.4 1.6-11.6 5.6-14.8 11.2s-4 12-2.4 18.4l56 208.8c1.6 6.4 5.6 11.6 11.2 14.8 5.6 3.2 12 4 18.4 2.4l184-49.2 4 15.6-184 49.2c-3.2.8-6.8 1.2-10.4 1.2z"/></g></symbol><symbol id="e" viewBox="0 0 58 58"><path fill="#EFEBDE" d="M46.5 14l-14-14h-31v58h45z"/><path fill="#D5D0BB" d="M11.5 23h25a1 1 0 1 0 0-2h-25a1 1 0 1 0 0 2zm0-8h10a1 1 0 1 0 0-2h-10a1 1 0 1 0 0 2zm25 14h-25a1 1 0 1 0 0 2h25a1 1 0 1 0 0-2zm0 8h-25a1 1 0 1 0 0 2h25a1 1 0 1 0 0-2zm0 8h-25a1 1 0 1 0 0 2h25a1 1 0 1 0 0-2zm-4-45v14h14z"/><path fill="#21AE5E" d="M34.5 36h22v22h-22z"/><path fill="#FFF" d="M44.5 37.586h2v16h-2z"/><path fill="#FFF" d="M45.5 55l-7-6.707 1.476-1.414 5.524 5.293 5.524-5.293 1.476 1.414z"/></symbol><symbol id="f" viewBox="0 0 100 100"><path fill="none" d="M0 0h100v100H0z" class="bk"/><circle cx="50" cy="50" r="25" fill="#edb900"/><g><path fill="red" d="M79.7 53.9c-.3 2.6-1 5-1.9 7.3l15.6.2-13.7-7.5zM61.2 22.2l.2-15.6-7.5 13.6c2.5.4 5 1 7.3 2zm-15.4-1.9L38.1 6.8l.4 15.5c2.3-1 4.7-1.6 7.3-2zm27.8 11.2l7.9-13.4-13.3 8.1c2 1.5 3.8 3.3 5.4 5.3zm6.1 14.3l13.6-7.6-15.5.4c.9 2.2 1.5 4.6 1.9 7.2zM31.5 26.4l-13.4-7.9 8.1 13.3c1.5-2 3.3-3.8 5.3-5.4zm22.7 53.3l7.6 13.6-.4-15.5c-2.2.9-4.6 1.5-7.2 1.9zm-32-40.9l-15.6-.1 13.6 7.5c.4-2.6 1-5.1 2-7.4zm46.3 34.8l13.4 7.9-8.1-13.3c-1.5 2-3.3 3.8-5.3 5.4zm-29.7 4.2l-.2 15.6 7.5-13.6c-2.5-.4-5-1-7.3-2zm-12.4-9.3l-7.9 13.4 13.3-8.1c-2-1.5-3.8-3.3-5.4-5.3zm-6.1-14.3L6.8 61.9l15.5-.4c-1-2.3-1.6-4.7-2-7.3z"/><animateTransform attributeName="transform" type="rotate" from="0 50 50" to="60 50 50" repeatCount="indefinite" dur="1s"/></g></symbol><symbol id="g" viewBox="0 0 1024 1024"><path fill="#FFE079" d="M772.007 512.324c0 76.27-32.933 143.872-83.202 190.673H336.928c-52.002-46.801-83.203-114.403-83.203-190.673 0-143.872 116.137-260.008 260.009-260.008s258.273 116.138 258.273 260.008"/><path fill="#51565F" d="M841.344 1023.675H494.666c-5.2 0-8.668-3.467-8.668-8.668 0-5.2 3.468-8.667 8.668-8.667h346.678c5.2 0 8.668 3.467 8.668 8.667-.002 5.2-3.468 8.668-8.668 8.668zm-416.013 0H113.32c-5.2 0-8.668-3.467-8.668-8.668 0-5.2 3.468-8.667 8.668-8.667h312.01c5.2 0 8.668 3.467 8.668 8.667-.003 5.2-3.468 8.668-8.668 8.668zm346.676-104.003H390.662c-5.2 0-8.667-3.468-8.667-8.668 0-5.2 3.467-8.668 8.667-8.668h381.345c5.2 0 8.668 3.468 8.668 8.668 0 5.2-3.468 8.668-8.668 8.668zm-450.68 0h-138.67c-5.2 0-8.668-3.468-8.668-8.668 0-5.2 3.468-8.668 8.668-8.668h138.672c5.2 0 8.667 3.468 8.667 8.668-.002 5.2-3.467 8.668-8.667 8.668zm624.02-104.004H564.001c-5.2 0-8.668-3.467-8.668-8.667s3.467-8.668 8.668-8.668h381.344c5.2 0 8.668 3.468 8.668 8.668s-3.465 8.667-8.666 8.667zm-450.681 0H113.32c-5.2 0-8.668-3.467-8.668-8.667s3.468-8.668 8.668-8.668h381.345c5.2 0 8.667 3.468 8.667 8.668s-3.467 8.667-8.667 8.667zm520.016-104.003H286.66c-5.2 0-8.667-3.467-8.667-8.668s3.467-8.667 8.667-8.667h728.023c5.2 0 8.668 3.467 8.668 8.667s-3.467 8.668-8.668 8.668zm-797.358 0H9.318c-5.2 0-8.668-3.467-8.668-8.668s3.467-8.667 8.668-8.667h208.006c5.2 0 8.668 3.467 8.668 8.667s-3.468 8.668-8.668 8.668zm65.868-67.602c-3.468 0-6.933-1.733-6.933-5.2-20.8-38.134-31.201-83.203-31.201-126.537 0-147.337 121.336-268.676 268.676-268.676S782.41 364.987 782.41 512.326c0 43.334-10.4 86.67-31.201 124.804-1.733 3.467-6.933 5.2-12.133 3.467-3.468-1.732-5.2-6.932-3.468-12.133 19.068-36.4 29.468-76.27 29.468-117.87 0-138.672-112.67-251.341-251.34-251.341s-251.34 112.67-251.34 251.34c0 41.602 10.4 81.47 29.467 117.871 1.733 3.468 0 8.668-3.467 12.133-3.47 1.731-5.204 3.466-5.204 3.466zm696.822-123.071H841.342c-5.2 0-8.667-3.468-8.667-8.668s3.467-8.668 8.667-8.668h138.672c5.2 0 8.668 3.468 8.668 8.668s-3.468 8.668-8.668 8.668zm-797.358 0H43.984c-5.2 0-8.668-3.468-8.668-8.668s3.468-8.668 8.668-8.668h138.672c5.2 0 8.667 3.468 8.667 8.668s-3.467 8.668-8.667 8.668zm499.216-86.67c-3.468 0-6.933-1.733-6.933-5.2-13.868-27.734-36.401-52.002-62.402-71.07-3.468-3.468-5.2-8.668-1.733-12.133 3.468-3.468 8.668-5.2 12.133-1.733 29.468 19.068 53.735 45.069 69.335 76.27 1.733 3.467 0 8.667-3.467 12.133-3.466 1.733-5.2 1.733-6.933 1.733zm135.204-39.867c-3.467 0-6.933-1.733-8.668-5.2-1.732-5.2 0-8.668 5.2-12.133l64.135-26.001c5.2-1.733 8.668 0 12.133 5.2 1.733 5.2 0 8.668-5.2 12.133l-64.135 26h-3.465zm-610.152 0h-3.468l-64.134-26c-5.2-1.734-6.933-6.934-5.2-12.134 1.732-5.2 6.932-6.933 12.133-5.2l64.134 26c5.2 1.733 6.933 6.934 5.2 12.134-1.732 3.465-5.2 5.2-8.665 5.2zm736.689-52.002c-3.468 0-6.933-1.732-8.668-5.2-1.733-5.2 0-8.668 5.2-12.133l71.07-29.468c5.2-1.733 8.668 0 12.133 5.2 1.733 5.2 0 8.668-5.2 12.133l-71.07 29.468h-3.465zm-863.228 0h-3.467L5.85 312.985c-5.2-1.733-6.933-6.933-5.2-12.133 1.733-5.2 6.933-6.933 12.133-5.2l71.07 29.468c5.2 1.733 6.933 6.933 5.2 12.133-3.468 3.466-5.2 5.2-8.668 5.2zm670.822-52.001c-1.733 0-5.2 0-6.933-1.733-3.468-3.468-3.468-8.668 0-12.133l86.67-84.936c3.467-3.467 8.667-3.467 12.133 0 3.467 3.468 3.467 8.668 0 12.134l-86.67 84.935c-1.733 1.733-3.466 1.733-5.2 1.733zm-466.28 0c-1.733 0-5.2 0-6.933-1.733l-98.804-98.803c-3.467-3.468-3.467-8.668 0-12.133s8.668-3.468 12.133 0l98.804 98.803c3.467 3.467 3.467 8.667 0 12.133 0 1.733-3.468 1.733-5.2 1.733zm353.61-74.537h-3.467c-5.2-1.733-6.933-6.933-5.2-12.134l26-64.134c1.734-5.2 6.934-6.933 12.134-5.2s6.933 6.933 5.2 12.133l-26 64.134c-1.733 3.468-5.2 5.2-8.666 5.2zm-253.075 0c-3.467 0-6.933-1.733-8.667-5.2l-26.001-64.135c-1.733-5.2 0-8.668 5.2-12.133 5.2-1.733 8.668 0 12.133 5.2l26 64.134c1.734 5.2 0 8.668-5.2 12.134h-3.465zM512 191.648c-5.2 0-8.668-3.467-8.668-8.667V61.644c0-5.2 3.468-8.667 8.668-8.667s8.668 3.467 8.668 8.667v121.337c0 5.2-3.468 8.667-8.668 8.667zM333.461 89.378c-3.468 0-6.933-1.733-8.668-5.2l-29.466-71.07c-1.733-5.2 0-8.668 5.2-12.133 5.2-1.733 8.668 0 12.133 5.2l29.468 71.07c1.733 5.2 0 8.667-5.2 12.133-1.735-1.733-3.467 0-3.467 0zm357.078 0h-3.467c-5.2-1.733-6.933-6.933-5.2-12.133l29.468-71.07c1.733-5.2 6.933-6.933 12.133-5.2s6.933 6.933 5.2 12.133l-29.468 71.07c-1.733 1.732-5.2 5.2-8.666 5.2z"/></symbol><symbol id="h" viewBox="0 0 1024 1024"><path fill="#80D6FA" d="M259.898 408.04h8.664c38.118 0 72.772 12.129 103.96 31.188 5.198-13.862 10.396-25.99 17.326-38.117 3.466-5.198 5.198-10.396 8.664-13.862 3.466-5.198 6.93-10.396 12.128-15.594 8.664-12.128 19.06-22.524 31.187-32.92 3.466-3.466 6.93-5.198 10.396-8.664 5.198-3.466 10.396-8.664 15.594-12.128 41.584-29.456 93.564-46.782 147.275-46.782 143.812 0 259.899 116.088 259.899 259.899 0 8.664 0 15.594-1.732 24.258 81.435 22.524 140.345 95.295 140.345 183.66a190.045 190.045 0 0 1-190.593 190.594H129.95c-67.573 0-121.285-53.712-121.285-121.286 0-57.177 39.852-103.96 91.831-117.821-13.861-27.724-22.525-57.18-22.525-90.1 0-60.643 29.455-116.087 74.503-150.74 20.792-15.595 43.316-27.722 69.306-34.654 5.198-1.732 10.396-1.732 15.594-3.466 5.198-1.732 12.128-1.732 17.325-1.732 1.734-1.732 3.468-1.732 5.2-1.732"/><path fill="#FFE079" d="M467.817 316.21c-5.198 3.465-10.396 8.663-15.594 12.127-3.466 3.466-6.93 5.198-10.396 8.664-10.396 10.396-22.523 20.792-31.187 32.92-3.466 5.198-8.664 10.396-12.128 15.594-3.466 5.198-6.93 8.664-8.664 13.862-6.93 12.128-13.862 25.99-19.06 38.117-29.456-19.06-65.842-31.187-103.96-31.187h-15.593c-6.93 0-12.128 1.732-17.326 1.732s-10.396 1.732-15.594 3.466c-25.99 6.93-48.514 17.325-69.306 32.92-3.466-12.129-5.198-25.99-5.198-39.852 0-95.296 77.97-173.265 173.265-173.265 65.842 3.468 119.553 36.387 150.741 84.901"/><path fill="#51565F" d="M823.011 936.502H129.95C58.91 936.502 0 877.592 0 806.552s58.91-129.949 129.95-129.949c5.197 0 8.663 3.466 8.663 8.664s-3.466 8.662-8.664 8.662c-62.375 0-112.623 50.248-112.623 112.623s50.248 112.622 112.623 112.622h693.062c100.494 0 181.93-81.436 181.93-181.93 0-58.909-29.457-114.355-76.238-149.008-3.466-3.466-5.198-8.664-1.732-12.128 3.466-3.466 8.664-5.198 12.127-1.732 53.712 38.117 84.9 98.761 84.9 162.869-1.73 109.157-91.83 199.257-200.987 199.257zM81.436 641.949c-3.466 0-6.93-3.466-8.664-6.93-1.732-12.128-3.466-24.258-3.466-36.385 0-109.158 90.097-199.255 199.254-199.255 55.446 0 105.692 22.524 143.812 62.375 3.466 3.466 3.466 8.664 0 12.128-3.466 3.466-8.664 3.466-12.128 0-34.654-36.386-81.436-57.177-131.682-57.177-100.493 0-181.928 81.435-181.928 181.929 0 10.395 1.731 22.523 3.465 32.92-.002 5.197-3.465 8.663-8.663 10.395zm784.893-34.654h-1.732c-5.198-1.732-6.93-5.198-5.198-10.396 5.198-20.791 8.664-43.315 8.664-67.573 0-138.613-112.623-251.235-251.235-251.235-83.167 0-161.137 41.584-207.918 110.89-3.466 3.466-8.664 5.198-12.128 1.732-3.466-3.466-5.198-8.664-1.732-12.128C445.297 304.08 528.465 259.03 618.562 259.03c147.276 0 268.563 121.286 268.563 268.563 0 24.258-3.466 48.514-10.396 71.04-3.47 6.93-6.936 8.661-10.4 8.661zm-713.856-34.651h-1.732c-5.198-1.732-6.93-6.93-5.198-10.396 8.664-27.722 25.99-51.98 50.248-69.306 3.466-3.466 8.664-1.732 12.128 1.732 3.466 3.466 1.732 8.664-1.732 12.128-20.792 13.862-36.386 36.386-43.316 60.644-3.466 3.464-6.932 5.198-10.398 5.198zm653.212-34.654c-5.198 0-8.664-3.466-8.664-8.664 0-34.654-10.396-69.306-29.456-98.762-3.466-3.466-1.731-8.663 1.732-12.127 3.466-3.466 8.664-1.732 12.128 1.732 20.792 32.92 32.92 69.305 32.92 109.157.004 5.198-3.462 8.664-8.66 8.664zM77.97 416.705H8.664c-5.198 0-8.664-3.466-8.664-8.664 0-5.198 3.466-8.664 8.664-8.664H77.97c5.198 0 8.664 3.466 8.664 8.664 0 5.198-3.466 8.664-8.664 8.664zm72.771-34.654h-1.732c-5.198-1.732-6.93-5.198-6.93-10.396 17.326-84.9 91.832-145.543 178.463-145.543 39.852 0 77.97 12.128 109.157 36.385 3.466 3.466 5.198 8.664 1.732 12.128-3.466 3.466-8.663 5.198-12.127 1.732-29.456-20.792-62.376-32.92-98.762-32.92-77.97 0-145.543 55.446-161.137 131.682-1.734 3.466-5.198 6.932-8.664 6.932zM97.03 323.14h-3.466l-31.188-13.86c-5.198-1.732-6.93-6.93-5.198-12.128 1.732-5.198 6.93-6.93 12.128-5.198l31.187 13.862c5.198 1.732 6.93 6.93 5.198 12.128-3.464 3.464-5.198 5.198-8.662 5.198zm395.046-77.97c-1.732 0-5.198 0-6.93-1.731-3.466-3.466-3.466-8.664 0-12.128l48.514-48.514c3.466-3.466 8.664-3.466 12.128 0s3.466 8.664 0 12.128l-48.514 48.514c0 1.732-3.466 1.732-5.198 1.732zm-343.066 0c-1.732 0-5.198 0-6.93-1.731l-48.516-48.516c-3.466-3.466-3.466-8.664 0-12.128s8.664-3.466 12.128 0l48.514 48.514c3.466 3.466 3.466 8.664 0 12.128.002 1.734-3.464 1.734-5.196 1.734zm77.97-51.98c-3.466 0-6.93-1.731-8.664-5.197l-13.862-31.188c-1.732-5.198 0-8.664 5.198-12.128 5.198-1.732 8.664 0 12.128 5.198l13.862 31.188c1.732 5.198 0 8.664-5.198 12.128h-3.464zm187.127 0h-3.466c-5.198-1.731-6.93-6.93-5.198-12.127l13.862-31.188c1.732-5.198 6.93-6.93 12.127-5.198 5.198 1.732 6.93 6.93 5.198 12.128l-13.861 31.188c-3.464 1.732-5.198 5.198-8.662 5.198zm-93.564-19.059c-5.198 0-8.664-3.466-8.664-8.664V96.162c0-5.198 3.466-8.664 8.664-8.664 5.198 0 8.664 3.466 8.664 8.664v69.306c-.002 5.198-3.466 8.664-8.664 8.664z"/></symbol><symbol id="i" viewBox="0 0 1024 1024"><path fill="#8a8a8a" d="M32.936.998v1022.004V.998zm31.937 0v1022.004V.998zm31.937 0v1022.004V.998zm31.939 0v1022.004V.998zm31.937 0v1022.004V.998zm31.938 0v1022.004V.998zm31.937 0v1022.004V.998zm31.938 0v1022.004V.998zm31.938 0v1022.004V.998zm31.937 0v1022.004V.998zm31.938 0v1022.004V.998zm31.938 0v1022.004V.998zm31.937 0v1022.004V.998zm31.938 0v1022.004V.998zm31.937 0v1022.004V.998zm31.938 0v1022.004V.998zm31.938 0v1022.004V.998zm31.937 0v1022.004V.998zm31.938 0v1022.004V.998zm31.937 0v1022.004V.998zm31.938 0v1022.004V.998zm31.938 0v1022.004V.998zm31.937 0v1022.004V.998zm31.938 0v1022.004V.998zm31.938 0v1022.004V.998zm31.937 0v1022.004V.998zm31.938 0v1022.004V.998zm31.937 0v1022.004V.998zm31.939 0v1022.004V.998zm31.937 0v1022.004V.998zm31.937 0v1022.004V.998zM.998 32.936h1022.004H.998zm0 31.937h1022.004H.998zm0 31.937h1022.004H.998zm0 31.939h1022.004H.998zm0 31.937h1022.004H.998zm0 31.938h1022.004H.998zm0 31.937h1022.004H.998zm0 31.938h1022.004H.998zm0 31.938h1022.004H.998zm0 31.937h1022.004H.998zm0 31.938h1022.004H.998zm0 31.938h1022.004H.998zm0 31.937h1022.004H.998zm0 31.938h1022.004H.998zm0 31.937h1022.004H.998zm0 31.938h1022.004H.998zm0 31.938h1022.004H.998zm0 31.937h1022.004H.998zm0 31.938h1022.004H.998zm0 31.937h1022.004H.998zm0 31.938h1022.004H.998zm0 31.938h1022.004H.998zm0 31.937h1022.004H.998zm0 31.938h1022.004H.998zm0 31.938h1022.004H.998zm0 31.937h1022.004H.998zm0 31.938h1022.004H.998zm0 31.937h1022.004H.998zm0 31.939h1022.004H.998zm0 31.937h1022.004H.998zm0 31.937h1022.004H.998zm0-862.315v830.378h1022.004V128.749H.998zM959.127 895.25H64.873V192.624h894.254V895.25zM703.626 352.31c0-52.916 42.896-95.812 95.813-95.812s95.812 42.896 95.812 95.813-42.896 95.813-95.812 95.813-95.813-42.896-95.813-95.813zM895.25 831.377h-766.5l191.625-511.002 255.5 319.375 127.75-95.812z"/></symbol><symbol id="j" viewBox="0 0 1024 1024"><path fill="#f60" d="M895.824 331.825l-36.152 647.246c-1.333 23.784-22.117 42.416-47.314 42.416H211.853c-25.202 0-45.986-18.632-47.315-42.416l-36.15-647.246c-1.376-24.692 18.686-45.768 44.818-47.074 26.248-1.194 48.43 17.669 49.81 42.356l33.782 604.828h510.615l33.782-604.828c1.388-24.702 23.835-43.476 49.81-42.356 26.132 1.306 46.194 22.382 44.819 47.074zm125.591-149.862c0 24.73-21.215 44.778-47.375 44.778H50.17c-26.164 0-47.374-20.048-47.374-44.778s21.21-44.768 47.375-44.768h260.576V36.444c0-21.637 15.275-33.578 38.167-33.578h326.37c22.895 0 38.18 11.941 38.18 33.578v100.75H974.04c26.16.002 47.375 20.04 47.375 44.77zm-627.752-44.767h236.89V81.222h-236.89v55.974zm19.863 727.586h.996c22.886 0 41.004-20.812 40.467-42.444L442.94 338.383c-.537-21.632-19.308-39.305-42.421-38.829-22.891.505-41.004 18.16-40.467 39.792L372.1 824.32c.532 21.316 18.978 40.462 41.425 40.462zm195.348 0c22.442 0 40.894-18.002 41.426-39.319l12.047-483.298c.537-21.632-17.576-39.847-40.462-40.351-23.253-.32-41.888 16.483-42.426 38.106l-12.047 483.775c-.537 21.637 17.575 41.088 40.467 41.088l.995-.001z"/></symbol></defs><use width="50" height="50" xlink:href="#a"/><use width="50" height="50" x="50" xlink:href="#b"/><use width="50" height="50" x="100" xlink:href="#c"/><use width="50" height="50" x="150" xlink:href="#d"/><use width="50" height="50" x="200" xlink:href="#e"/><use width="50" height="50" x="250" xlink:href="#f"/><use width="50" height="50" x="300" xlink:href="#g"/><use width="50" height="50" x="350" xlink:href="#h"/><use width="50" height="50" x="400" xlink:href="#i"/><use width="50" height="50" y="50" xlink:href="#j"/></svg>